<svg xmlns="http://www.w3.org/2000/svg" viewBox="0 0 557.28 594.28"><defs><style>.cls-1,.cls-2{fill:none;stroke-linecap:round;stroke-linejoin:round;}.cls-1{stroke:#a59c94;}.cls-2{stroke:#7fa9ae;stroke-width:2px;}</style></defs><g id="Council_BDRY"><polyline class="cls-1" points="152.78 331.63 152.35 331.19 153.35 330.91 152.63 330.33 151.63 329.47 138.52 316.94 137.51 316.94 137.37 316.65 134.92 316.94 131.47 316.94 127.72 317.8 126.86 318.52 122.11 323.42 121.96 332.49 119.8 332.49 119.52 332.06 101.95 332.06 101.95 322.55 101.95 313.05 101.66 313.48"/><polyline class="cls-1" points="152.78 331.63 163.58 328.31 175.1 324.86 182.01 322.7 202.6 316.36 203.04 316.36 203.32 316.22 226.51 309.02 230.4 307.87 231.84 311.75 234.28 319.53 234.72 320.83 235.58 322.7 237.16 325.15 238.46 326.87 240.04 328.31 242.21 330.04 244.37 331.34 246.38 332.35 247.68 332.92 249.98 333.5 263.09 335.66 264.53 335.8 267.84 335.95 267.69 350.49 268.13 350.49 267.84 358.41 282.81 358.41 282.81 362.15 285.98 364.03 289.73 361.29 290.3 361 290.88 360.71 292.17 360.43 292.75 360.43 296.93 361 296.64 363.74 296.49 366.04 296.49 368.2 296.64 369.35 297.07 371.51 297.79 373.67 298.37 374.97 298.94 376.27 299.95 377.99 305.86 386.92 306.57 388.22 307.3 389.51 307.87 390.95 308.3 392.39 308.59 393.83 309.02 396.43 309.02 399.02 308.59 402.91 314.35 403.48 316.22 405.21 324.57 405.5 324.14 408.38 314.5 418.89 313.06 423.21 317.09 427.39 316.22 427.82 315.79 428.11 315.36 428.68 315.21 428.97 314.93 430.27 314.35 432.14 314.06 432.86 313.77 434.73 313.77 435.59 313.92 435.31 314.5 434.15 315.07 433.43 315.5 433 316.51 432.43 318.67 431.71 319.1 431.56 319.97 430.99 320.4 430.55 320.54 430.27 320.69 429.69 320.54 428.25 320.69 427.39 321.26 425.37 321.26 424.94 321.98 424.07 322.42 423.79 323.42 423.21 324.29 422.35 324.57 422.06 324.86 421.91 328.32 421.48 329.18 421.34 330.77 421.48 332.21 422.06 333.5 422.06 333.94 422.2 335.23 422.63 337.39 423.21 340.42 424.22 342.14 424.65 342.86 425.08"/><polyline class="cls-1" points="41.61 308.15 63.21 304.12 71.13 302.68 73.43 302.39 74.87 302.39 77.9 302.54 81.07 302.97 84.09 303.69 85.67 304.12 88.7 305.42 94.89 308.59 100.22 311.75 101.66 312.33 101.66 313.48"/><polyline class="cls-1" points="423.36 258.76 420.63 262.07 419.33 264.09 412.85 276.76 406.94 273.74 405.65 273.16 404.5 272.87 402.19 272.3 400.18 272.15 399.02 272.01 396.72 272.15 394.85 272.59 393.26 273.31 392.4 273.74 391.39 272.59 390.24 272.15 388.94 271.72 386.64 271.43 379.44 270.57 370.8 270.14 368.64 270.14 366.62 270.14 362.59 270.57 360.58 270.86 356.69 271.87 326.3 281.23 322.85 281.8 320.69 282.09 309.02 282.95 291.89 283.82 270.43 285.11 269.42 285.11 267.84 284.83 263.95 284.11 261.93 283.53 260.21 282.95 248.97 277.91 246.38 278.78 242.35 280.07 237.45 281.51 223.77 285.69 180.72 298.94 154.36 307 150.47 294.19 149.9 293.32 149.18 292.75 139.24 288.43 138.81 287.99 118.65 279.07 108.57 275.03 98.35 270.57 105.26 254.59 85.39 245.94 82.65 244.65 81.79 244.36 80.06 244.07 79.19 244.07 73.58 244.36 70.41 244.36 64.5 242.92"/><line class="cls-1" x1="64.51" y1="242.92" x2="64.79" y2="242.2"/><polyline class="cls-1" points="423.36 258.76 425.38 256.31 426.82 254.87 427.68 254.3 432.43 251.42 434.59 249.54 435.75 248.54 444.96 238.75 445.83 237.74 447.12 235.87 447.99 233.99 448.56 232.84 449.14 230.82 449.43 229.53 449.71 226.36 487.44 228.09 499.39 228.66 501.12 228.95"/><polyline class="cls-1" points="118.36 145.29 119.66 147.45 131.18 165.88 132.76 167.61 133.63 168.33 134.49 168.91 152.78 178.84 154.22 179.85 154.94 180.57 155.95 181.87 162.28 193.38 160.27 194.39 158.54 195.4 155.08 197.42 154.22 198.14 153.93 198.57 153.21 199.87 152.49 201.31 148.89 209.66 160.27 221.47 164.59 225.5 181.72 243.93 188.2 229.24 189.5 225.64 192.38 219.31 193.96 220.17 195.26 220.75 205.92 224.92 208.65 225.93 213.84 227.37 216.28 227.94 219.74 228.81 243.07 232.7 243.21 223.77 243.36 223.34 243.79 222.62 244.22 221.18 245.09 219.31 245.66 207.5 253.87 207.93 254.45 192.09 256.17 192.52 257.18 192.52 272.16 192.52 274.17 192.81 275.33 193.24 277.2 193.96 278.06 194.54 279.65 195.69 280.37 196.41 283.68 200.3 285.12 201.59 286.41 202.46 287.42 203.03 288.43 203.47 289.44 203.75 291.45 204.19 292.61 204.19 295.92 204.19 318.53 206.34 317.66 215.27 316.8 220.31 314.21 244.36 313.92 245.66 313.2 247.53 312.48 249.54 311.62 251.13 324.29 254.87 324.29 253.58 326.16 237.16 327.02 231.11 326.88 230.97 329.62 206.63 336.1 205.63 337.82 205.63 339.55 205.91 341.13 206.63 341.86 207.06 345.89 210.09 346.75 210.66 348.48 211.38 350.21 211.82 352.94 211.96 375.98 212.39 375.55 239.32 380.88 238.46 381.89 238.31 382.9 238.31 384.48 238.46 385.92 238.89 391.39 241.34 407.67 250.26 418.03 256.02 423.36 258.76"/><line class="cls-1" x1="118.36" y1="145.29" x2="118.51" y2="144.57"/></g><g id="SMC_BDRY"><path class="cls-2" d="M789.28,426.67h-9.94l-10.08-.14H753l-.14,4.9-.15,15-.28,13.25v6.91l-.15,3.17v4.18l-.14,5.9v3.6l-.15,3.17.15,3v10.08l.14,6.63h-2.88l-8.06-.29h-5.76l-3-.15-5.47-.14-4.32-.14h-3.6l-6.33-.15-7.92-.29-12.1-.43h-1.44l-5.91-.14-2.59-.15-6.05-.14V507l-.14,6.76v.44l-.29,9.93v2.45l-.29,10.08L676,538l-.14,6.91-.15,2.59-.43,11.09-.14,6.62-10.37-.43-6.77-.14-2.16-.15h-3l-1.16-.14h-2.3l-2.59-.14-.15,3V577l-7.48-.29-8.07-.14-.14,8.06-9.36-.28h-3.89l-9.79-.15v-5l.14-2.59.15-8.78v-.58l.14-4.18-8.35-.14h-1.15l-5.19,9.5h-.43l-3,.15-6.62.14h-6l-.14,3.31-.15,3.46v4H578l-.15.15v.57l-.28,3-1.16,1.44-2,.72-3-.87v.58l-.14.43V591l-.43,1-.43,1.44v4.46l2.16-1.44.57.87H573l-4.32,2.88-.29.14-2.16,1.3-.29,1.58-1.29-.72.43-1v-.14l-2.16-1.87-.43-.15-2.16,1.44-4.18.15h-1l-2.16-.44-1.73-.72-.28-.14-.87-.43v.86l.15,2.31v1.58h-12l-2.88-.14H524l-1.87-.15H515.1l-.14,7.06v8.49l-.15,3.46v5.47l-.14,6.19v6.77l-.15,2.59-.14,13.25v.87l-.14,5.9-10.95-.14h-8.5l-5.32-.15H473.91l-.14,13v.72l-2.45,2.59-.14.15-1.59,1.73,3.46,1.58h-8.78L462,683h-1.73l1-1.3-8.64-6.62-3.31-2.6-2.3-1.87,2.16-3.17-.15-.14-.29-.14-.28-.15-.15-.14-.14-.29-.15-.29-.14-.14-.14-.29v-1.58l.14-.29.14-.29.15-.29.14-.14.29-.15.29-.28.14-.15h.29l.43-.14.29-.15.29-.14.29-.29.28-.14.29-.29.15-.29.14-.29.14-.28.15-.44.14-.28v-1l-.14-.29v-.29l-.15-.29-.14-.28-.29-.15-2.45-2.59-.28-.14-.15-.29-.14-.29-.15-.29-.14-.29v-.28l-.14-.44v-.28l.14-.15v-.29L448,652l.15-.29,1.29-2,2.74-4.32.14-.14.15-.15.14-.14.29-.14H453l.29-.15.15-.14.14-.15.14-.14.15-.29.14-.14v-.29l.15-.14V635l.14-15.84v-3.45l-.14-.29-.44-.58-2.59-3.74-.14-.29-.43-.14-5.33-2.45-.43-.14h-1.16l-.28-.15h-1l-.29-.14h-.29l-.43-.15h-.29l-.29-.14h-.28l-.44-.14-.28-.15h-.29l-.29-.14-.29-.15-.43-.14h-.29l-.29-.14-.28-.15-.29-.14-.29-.15-.29-.14-.29-.14-.28-.15-.29-.14-.29-.29-.29-.14-.29-.15-.28-.14-.29-.29-.29-.14-.29-.15-.14-.14-.29-.15-.14-.14-.29-.29-.15-.14h-.14l-.14-.15-.15-.14-.14-.14-.15-.15-.14-.14-.14-.15h-.15v-.14l-.29-.14-.14-.29-11.81-.15,1.3,5.62.86,3.17,1.44,5.47.72,3,.15.44.28.28-6.48,4.76v.14h-.14V625h-.14v.29h-.15v.29h-.14v.29l-6.63-.72-1.87-.15-2.3-.28-3.17-.29-1.44-.15-3.89-.43-3.89-.43.15-7.34V606l.14-3.89v-.87h-7.2l-13,.15V597l.14-6.63V560.16h-2.73l-3.75-.14-5-6.91-.86-1.15h-.14l-.58.57-.43-.72-.87-1.15-.14.14-.43.29-.29-.43-.86-1.3.14-.43-.58-.86-.57-.15-.15-.28-.14-.87-.43-.86L356,545l-.29-.57-.15-.72-.14-.72-.14-.87-.15-.72-.14-.86v-3.89l-1.15-.14h-.72l-.29-.29-.15-.14v-.29l-.28-2,.43-.29.29-4.6.14-.29v-.43l.29-.72.14-.15v-5l.15-1.3V516.1h-.15v-1.3h-.14v-.72h-.15v-.57h-.14v-.58h-.14v-.43H353v-.43h-.14v-.29l-.43-1.15-.44-.87-.43-1.29-.43-1v-.15l-.14-.14-.29-1-.15-.29-1.44-3.16-.43-.87v-.14l-.29-.87-.28-.43V500h-.15v-.43h-.14v-.43h-.15v-.44l-.14-.14v-.43l-.14-.15v-.57l-.15-.15v-1h-.14v-3.17l.14-.15v-1h.15v-.58l.14-.72.14-.43.29-1.3.15-1.29.28-1.16V486l.15-.14v-.43l.14-.15v-.43h.15v-.29l.14-.14v-.29h.14v-.29h.15v-.14l.14-.15v-.14l.15-.14v-.15l.14-.14.14-.15v-.14l.15-.14.14-.15v-.14h.15v-.15h.14V482h.14v-.14h.15v-.15h.14v-.14h.15v-.15h.14v-.14h.14l.15-.14,1-.87h-3.32V476.5l-5-.15h-9.5V457.92l-.14-8.06v-3.75l.14-2.16V435.6l.14-2.59.15-10.66v-7.63L335,410v-7.49l.43-.14.87-.15h.43v-.14h.58v-.14H338v-.15h.57l1.73-.72.29-.14,2-.72.29-.15,1-.43h.29l.14-.14h3.6l2.31.14H360.3l.72-.14h.86l.86-.15h.72l.72-.14.58-.14h.29l.43-.15h.29l3.89-.72,5.32-1V379.59l.15-1.59v-6.33l.14-.29,2-2.59.72-1,.43-.58,1-1.29.14-.15.15-.14.72-1.15.28-.58.15-.29.14-.14,1.44-2h-1.15v-.14l.14-.15v-.28l.15-.29.14-.29.29-.43.14-.29.29-.29.29-.29.29-.28.29-.44.28-.28.72-.87.29-.43.43-.43.29-.58.29-.43.29-.58.14-.57.29-.58.14-.43v-.58l.72-3,.15.14.14-.43.15-.57-1.16-.87v-.29h-.14l.14-.14v-.14l.29-.29,1.15-1.59.87-1,.29-.44.14-.43.29-.43.43-.29.29-.43.29-.29.43-.29.43-.28.14-.15L392,341l.28-.14.15-.14.29-.15.14-.14.14-.15.15-.14.14-.14h.15l.14-.15.14-.14.15-.29.29-.14.14-.29.14-.15.15-.14.29-.29.14-.14.14-.29.15-.14.14-.29.29-.15.14-.28.15-.29.14-.15.15-.28.28-.44v-.28l1.59-3.6,1.58-3.89,3.31-8.21.72-1.44,2.45-6.34.15-.14.28.14.15-.43,2.3-5.33.15-.43.57-1.29.15-.44.43-1,.57-1.16.15-.57.43-.87.14-.43,1.16-2.45.86-2.3.15-.14.14-.29v-.15l.43-.86.15-.29v-.29l.57-1.15.15-.43.14-.43h.14l.58-1.3.14-.29.44-1.15.14-.29.14-.28.87-2,.86-2,.87-1.87.86-2,.86-2,.58-1.3.86-1.72.44-1,3,1.29,1.3.58.43.14,4.17,1.73,1.16-2.73.86-2,.86-2,.15-.43.43-.72v-.14l.14-.15.44-1v-.15l1-2.3v-.15l1-2.16.43-.86.58-1.44.58-1.15.43-1.15.14-.29.15-.15,3-7.34,2.45-5.9.14-.15.15-.29.14-.43,1.15-2.88.43-.86v-.15l.29.15.15-.29v-.14l1-2.31.15-.29.14-.28L450,237l.58-1.16.28-.86.29-.43v.14l.29.58v.14h.14v.29l.29-1.3v-.28L452,234l1.58-.57,1.44-.29.14-.43,1.3-2.88.43-1,1-2.31,1.44-3.16,1,.43,1.73.72,2.44,1.15,1.44.58,1-2.45,1.59,1.87.72.72.14.14,2.88-1,3.31-1.88v.15h.15v.14l.14.15v.14h.14v.29h.15v.29h.14v.14l.15.14v.15l.14.14v.15l1.15-.29,1.44.43h.15L488,228.1l7.48,2.16.29.14v-8.06l11.24-14,.28-.29,2.74-3.45,5.18-6.34v-1.73l.15-2.16v-3.6l.14-1.87v-1.58l.15-9.08h19.44v-14l3.74-5.9,5.76-9.07.29-.29.29-.29.14-.29,1.58-1.58.15-.29.14-.29.29-.28v-.29l1.15-2.74.29-.57.29-.58.43-.58.29-.57.43-.43.43-.44.43-.57.44-.29.14-.14.14-.15h1.3l-2,4.32-2,4.75-2.45,2.74-.29,5.33-.14,2-.15.72-.72,3.32.44.14.72.43,2.88,1.15.43.15,1,.43,1.72.72h.15l.57-.29.15-.14h.14l.72-.29.43-.29.29-.14h.29l.43-.15h1l.29.15.29.14.28.15.29.14.29.14.14.29L560.6,167l.15-.14.14-.15,3-4.32,2.3-3.45M789.28,426.67v.15h10.08V416l.15-4.75v-5l.14-11.24v-1.15l.43.29,1.15.58v-.15l.58-1.15.58-1,.14-.14,1-2,.29-.57.43-.72.29.28,1.15,1.3,2.45,2.88-.29.58-1.73,3.31,10.66,5.61,6.62,3.6h.14l.44-.57v-.15l.28-.57.15-.43h.14l.15-.44.14-.14,1.44-2.74.29-.86,1.29-2.3L828,398l8.49,4.32.72.43.58.29,4.32,2.3,3.74,2,.44.14.28.15,3,1.58.72.43.72.29,4.46,2.45,4.32,2.3,2.31,1.15,2.16,1.16,4.46,2.3,4.9,2.59,1.58-3.17,3-5.76-.44-.14v-.14l.15-.29.29-.43v-.15l.14-.29.43-.72.58-1,.14-.44.29-.57.58-1,.43-1,.57-.86.44-1,.57-1,.43-.72.15-.29.43-1,.43-.87.29-.57.29-.58.43-.72.58-1,.57-1,.43-1,.72-1.3.15-.29.14-.29v-.14l1-1,.29-.43h.14v-.29h.15v-.14h.14V392h.14v-.29h.15v-.57h.14v-2.45l-1,.86-1,1.3-.87.86h-.14v.15h-.29V392h-.86v-.14l-1-.29-.29-.15-1.15.29h-.15l-.43.15-1.15-.15.29-1-.87-3.88-.28-.15-.29.29-1.3,2.74h-.14v-.15l-.72,1.3-.87,1.58L876.4,394l-1.15,2.16-1.15,2.16H874l-.29-.15L871.36,397l-1.29-.72-.29-.14-.15-.15-1-.43-2.16-1.15-.58-.29.14-.29.87-1.58.57-1.15.58-1.16.58-1.15.72-1.15.57-1.15-.14-.15-.87-.28-1.44-.87-.57.15-.43-.29h-.29l-.43-1.15v-1.3l-1,1.15-3.17-1.58.43-.72-.29-.87-.86-.57,1-2,.14-.29,2-3.88.14-.29h.43v-.15h3.32l1.87.15-1.87-2.45h-.15V371l-.72-.87-.57-.72h-.15l-.43-.57-.86-1-.29-.29h-.43l-.29-.14v.14h-4.47l.44-.29.28-.29.29-.28,2.74-2.16v-.29l.14-.43.29-.44v-.43h.14v-.29H864v-.14l.14-.14v-.15h.15V362h.14v-.15h.14v-.14h.15l.14-.14.15-.15h.14v-.14h.14v-.15h.29V361h.15l.14-.14H866v-.15h.29v-.14h.29v-.15h.14l.15-.14h.29v-.14h.28l.15-.15.86-.14.58-.29.43.29.58-.58.57-.57,2.6-2.31,3.31-3,.14-.15L877,353l.43-.29.72-.58.58-.57h-.15l-1.87-1.88-.43-.43-1.15-.86-1.44-1.15-.72-.44-.43-.28-.72-.58-1-.72-.58-.29-.72-.57-1.15-.87-2.45-1.73-1-.72-.57-.43-.58-.43-.58-.43-.14-.15-.43-.28-.87-.58-.14-.14-.86-.58-.44-.43-.43-.15-.86-.72-2.16-1.58-5.33-3.6-.58-.43-.86-.72h-.14l-3.32-2.45-1.15-.86-.14-.15-.72-.57-1.15-.87-1.3-1H842l-1.44-1-.29-.29-.58-.43-1.15-.87-.29-.14v.14l-.86-.57-.87-.58-.14-.14h-.14l-.72-.58-.87-.58h-.29l.29-1.72v-2.16h.15v-2.6l.14-1,.14-3v-2.73h.15v-2.31l.14-.72v-3l.15-1.3v-1.29l.14-1.73v-1.15l.14-1.44v-.29l.15-.15v-.28h.14v-.29h.15V292l.14-.14.43-.58.29-.28-.14-.15.43-.72.57-.72v-.14l.15-.15L838,289v-.14h-.14l-.29-.29-1-.72-.43-.29-1-.72-1-.86-1.16-.72-.72-.58h-.14l-1.15-.86-1-.87-1.73-1.15-.43-.43-.86-.58-4.18-2.88-4.61-3.45-1.15-.72v-.15l-6.77-5.18-.14.14v.15l-1-.72-.86-.58L806.27,266l-.57-.29-.58-.43H805l-.15-.14-.28-.15-.15.15h-.14v-1.88l.14-.14V263h.15v-.29l.14-.15v-.14h.14v-.14l.15-.29v-.15l.14-.14.29-.72v-.43h.14v-.43l.15-.15v-.72l.14-.14v-2.74h-.14v-.72h-.15v-.43l-.14-.14v-.29l-.14-.15v-.14l-.15-.43-.43-1v-.14l-.29-.72-.29-.72-.28-.87v-.29l-1.59.58-1.44.43-1.44.29-.57.29-.87.14-1.29.43-2,.72-.72.15-1,.29-1,.28-1,.29-.29.15-.87.14-.28.14-1.3.44-1.3.28h-.14l-2,.58-1.44.43-.43.15-.72.14h-.14l-1.59.58-.72.14-.29.14h-.14l-1,.29-1.44.43h-.14l-.72.29-.72-2.3-.15-.58v-.29l-.14-.43-.43-1.44-.58-1.87-.29-.86-.14-.58-.14-.58-.44-1.44-.86-2.73-.14-.15H771v-.14h-.43v.14h-.86l-.15-.14H769V245h-2.45v-.15H766v-.14h-1l.58,2.45.14.28.58,2.16.29.87v.29l.29.72.28,1.29.29,1.15.43,1.3v.14l.15.29,1.29,4.75-.72.15-1.29.43h-.15l-.43.14-1.44.44-1.15.28-.29-.86-.57-1.73-.58-2v-.29l-.14-.58-1.73.58h-.29v-.72h.14v-.43h.15v-.29h.14v-.15h.15V255h.14v-.15l.14-.14v-.15h.15l.29-.28-.29-.87-.15-.43-.28-1-.15-.29-13.68,3-.57.14v-.57l.14-1.73.14-2.31-.57-.72-3.6-4.75-3.89-5-12.53-16.13-.14-.28-.15-.15-.14-.14v-.15l-.14-.14v-.29h-.15v-.72h-.14v-3.6l.14-1,.15-3.31-.72-2.73-.15-.87v-.72l.15-1.73-.29-2.16v-.28l.14-.58,1.44-3.74.15-.44.14-3.88v-2.16h-.14v-.15h-.15v-.14h-.14l-.58-.29-2.3-.72v-.14l-1.59-.58h-.14l-1.3-.58-1-.28-1.44-.58-.44-.14.15-.15.14-.29.15-.28,1-1.59.15-.14,1.15-2.16-.43-.29,1.73-2.88,1.58-2.88h8.21l1.15.14h9.22l.86.15h5.9l6.34.14.29-4.17v-.44l.14-2.73v-1.3l.15-1.3v-1.15l.14-1.15.14-3.46.15-4.32v-.14l.14-2.59.15-1-.44.29-.86-.15-.58.29-.43-.57-.86-.44-1.44-1.29-.43-.87-.29-1.44-1.87-1.15h-.44l-3.6-.29-2-.28-.87-.44-.28-.14v-.14h-.15l-.29-.15-.43,1H729.38l-.58-.14-.86-.29-.29-.15-.43-.14-1.73-.72-1.44-.58-.58-.14-2.16-.86-2.3-.87-1.15-.43-1.59-.58-1-.43-.43-.14.15-.43.57.14.29.14L716,145l2.45-6.34,1.15-3.17-4.46-1.58-4-1.58h-.29l-.14-.15-5.19-1.87-1.73,4.46-1.87,4.9-5.61-2.16,1-2.74.15-.43,2.3-6.19.72-1.87.29-.58,2.45-6.19.29-.72.86-2.3,1-2.88.29-.58.14-.58v-.14l-.58-.86L704,109.73l-.57-1v-.14l-3.6-5.76-.15-.15v-.14l-.14-.29-.15-.43v-.29l-.14-.29v-.29l.14-.28v-.44l.15-.28.14-.58.15-.58-.72-1.44-2.88-6.48-3.32,1.44V91l-12.38-.15H678l-.58,4.32v.87l-.14.43v1.58h.14l.14.29h-4.89l-7.06.15h-1.87l-11.23.43.14,4.89.15,3.46.14,5.18v.15l.14,1.58v.72l.15,3.31v.29l-.15,1,2.16-.14v.28l11.24-.14v-.29l3.74-.14-.58,1.44-.72,1.58-.43,1.15-1.15,3-.14.43L667,127v.14l-.72,1.59-2.16,5.61-.72,1.73-.29.86-.86,2.45-.72,1.73-1.87,4.61-.43,1.15-.87,2.59-.43,1-1.3,3.17-.57,1.58-1.87,4.61-.15.43-2,5.47-.15,1.73v1.3l-6.77-1-2.16-.43v-7.49h-5L633,159.7l.14,5.61-5.47-3.17L624,160l-.44-.28H623l-4.47-.15h-25l-.72-.14h-.29v.14l.14.15V160l.15.15v.72l1.29,1.29.15.15.14.14.29.43.14.29.72-.29.58-.14.29.43v.15l.57,1.44,1,2.59-2.16.43-3.17-.58-2.88-.72-.43.29-3.6,2.88-4.18,3.6-8.35-.43-8.06-.58.43-2.59.29-2.45,1.15-6.48.14-.72.58-1,.72-1.59.14-.43,1-1.15.29-.58,2.59-6.19.58-2.74v-.14l.86-2.3,1-2.16,1.15-2.45.15-1.59.43-4.6-.72-3.89,2.45-8.5-.58-.86L575,129.17l.58,3.89-.43,6L573,143.42l-2.59,7.2-1.88,5-.14.58-.43.29-.29.14-.29.29-.14.29-.29.29-.14.28-.15.29-.14.29-.15.29-.14.29m-113,263.37h-1.87l-16-.14-.14-.72.14-3.17V402.91l-.29.44-.86.86-.86.86-1.3,1.3-1.15,1-.29.43-.29.29-.72.72-.72.72-.29.29-.43.43-.72.72-.57.57-.72.72-.58.72-.72.72-.72.72-.72.72-.72.72-.72.72-.14.15-.58.57-.72.87-.72.72-.72.72-.29.29-.43.43-.72.72-.86.86-.72.87-.44.43-.28.29L413.87,425l-.72.72-1.59,1.72L409,430.13l-.43.43-2.31,2.31-1.73,1.87-1.58,1.58-1,1-1,1-2.73,2.88L395.58,444l-.87.87-1.29,1.44L391.69,448l-.43.43-.29.29-.43.43-.44.57-.57.58-.58.58-.72.72-1,1-.14.15-9.22,9.65h-.14v.14h-.14l-.15.14v.15h-.14V463h-.15l-.14.15-.14.14-.15.14-.14.15-.15.14h-.14v.15h-.14V464H376v.14h-.14l-.15.15-.14.14-.14.15-.15.14h-.14v.14H375V465h-.14l-.43.29v4.32l-3.31,1-1.16.44-.86.14.29.86v.15h-.29v.57l-.14.29-1.73.29h-.43l-.29.14-.29.15-1.15.43h-.15l-.43.14h-.29v0h-.28l-.15-.14v-.29l-.86.72-1,.72-.29.15v.14l-.14-.14-.87.57-2.16,1.73-.43.29v.14l-2.3,1.73h-.15l-.72.58h.29l-.14.14v.14h-.15v.15h-.14V481h-.14v.15h-.15v19.44h6.48l5.33.14h3.74l2.6.14h3.74l1.58.15h3.89l5.19.14h1.29l2.16.15h4v20H395l13.82.43,5.62.15,2,.14h2.88l4.17.15h1.3l3.46.14,1.44,4.32h4.89v-9.07l.15-14.4v-10.8l6.48.14h6l4.32.15h6.34l6.91.14h11l2.73.14h7.92l4,.15h7.92l5.33.14h10.95l2.73.15v-7.64l.15-.14V463.11h-9.22L508,463H495.37l-.14-2v-.44l-.15-1.29-.14-1.87-.29-2.6v-.28l-.14-1.59v-.43l-.15-.58-.14-1.15-.15-1.87h-.14l-.43-4.46V443l-.15-.29v-.43l-.14-1.88v-.57h-.43v-1.3l-.15-1V437l-.14-.57v-1.16l-.14-.86-.15-1.58V432l-.14-.72v-1.44l-.15-1-.14-1.87v-.14l-.58-.58-.14-.14-.29-.15-1.15-1.15L488,423.22l-1.59-1.44-.72-.72h.15l.86-.29-.72-.58-.29-.28-.43-.29-.29-.29-.57-.58L483,417.46l-.87-.87-.29-.28-.14-.15-4.18-3.89-2.73-2.59-2.31-2.3-.57-.58h-7.06l-3.45.87h-.29L457.79,411l-2.16,2.16-.15.14-.14,4.47v4.6h-2.16M414,409.25h-.14l-.72.72-.15.29-.58.43v.14l-.72.72-.14.15-.58.72h-.14l-.72.72v.14l-.86.72v.15l-.87.86-.57.58-.87.86-.14.29-.43.43-.72.72-.58.58-.72.72-.14.14-.87.86-.29.29-.57.58-.72.72-.15.14-.43.43-.29.29-.57.58-.15.14v.15l-.86.72v.14l-.58.43-.14.29-.72.72-.43.43-.43.43-.15.29-.72.58-.72.72-.57.57V429l-.44.29v.14l-.28.29-.87.86-.14.15-.29.43,1.73,1.73.29.28,2.16,2,2.16,2.16.43.29.86-.87v-.14l.58-.43.14-.29.15-.14.57-.44.87-1,.72-.87.57-.57.43-.29.72-.87.87-.86.29-.29L407,430l.87-.87.72-.86.86-.87.29-.28.57-.58.87-.86.86-.87.87-.86.57-.72.29-.15.15-.28,2.16-2.16.86-.87.72-.86.72-.72.43-.43.43-.44.72-.72.87-.86-1.15-1-.87-.86-.14-.15h.14l.72-.72-.72-.72-.14-.14-.15.14-.72.58-.86-.86-1-1,.72-.72-.86-.87-.87.72-.86-.86m-44.79,58.18.29-.29,1.15-.72,3.46-2.74v-3h-3.6l-1.44-.15h-5l-2-.14-.28-.14h-4.9l-2.59-.15v7.35h.29l.28.14,4.47.58v.14h.14v.29l.87,1.15.57.72.15.14,1.15,1.59.29.43.28-.14.15-.15.14-.14,2.74-2.16,2-1.59.29-.14,1-.72.14-.14" transform="translate(-333.38 -89.86)"/></g></svg>