<svg xmlns="http://www.w3.org/2000/svg" viewBox="0 0 561.82 594.28"><defs><style>.cls-1{fill:#005670;stroke-width:1.01px;}.cls-1,.cls-2{stroke:#7fa9ae;stroke-linecap:round;stroke-linejoin:round;}.cls-2{fill:none;stroke-width:2px;}</style></defs><g id="PT_Places"><circle class="cls-1" cx="686.68" cy="386.14" r="3.96" transform="translate(-56.11 966.55) rotate(-87.65)"/><circle class="cls-1" cx="328.18" cy="255.95" r="3.96"/><circle class="cls-1" cx="541.81" cy="316.87" r="3.96" transform="translate(-120.07 759.03) rotate(-88.27)"/><circle class="cls-1" cx="762.28" cy="351.87" r="3.96" transform="translate(-335.97 -73.96) rotate(-1.19)"/><circle class="cls-1" cx="470.46" cy="291.52" r="3.96"/><circle class="cls-1" cx="475.57" cy="263.31" r="3.96" transform="translate(-142.16 633.91) rotate(-86.87)"/><circle class="cls-1" cx="167.91" cy="196.19" r="3.96"/><circle class="cls-1" cx="512" cy="297.87" r="3.96" transform="translate(-153.23 695.55) rotate(-85.58)"/><circle class="cls-1" cx="285.13" cy="242.13" r="3.96"/><circle class="cls-1" cx="633.83" cy="338.19" r="3.96" transform="translate(-329.85 -87.95) rotate(-0.17)"/><circle class="cls-1" cx="651.25" cy="343.51" r="3.96" transform="translate(-36.7 896.43) rotate(-88.62)"/><circle class="cls-1" cx="706.26" cy="330.12" r="3.96" transform="translate(-336.62 -72.65) rotate(-1.39)"/><circle class="cls-1" cx="496.45" cy="283.9" r="3.96" transform="translate(-126.14 684.71) rotate(-88.85)"/><circle class="cls-1" cx="183.75" cy="207.28" r="3.96"/><circle class="cls-1" cx="633.83" cy="337.32" r="3.96" transform="matrix(1, -0.02, 0.02, 1, -335.47, -77.08)"/><circle class="cls-1" cx="458.87" cy="245.74" r="3.96" transform="translate(-143.54 598.7) rotate(-86.46)"/><circle class="cls-1" cx="471.68" cy="260.28" r="3.96" transform="translate(-335.06 -78.24) rotate(-1.4)"/><circle class="cls-1" cx="493.28" cy="283.9" r="3.96" transform="translate(-130.58 680.74) rotate(-88.7)"/><circle class="cls-1" cx="589.33" cy="324.22" r="3.96" transform="translate(-75.92 816.81) rotate(-88.81)"/><circle class="cls-1" cx="655.43" cy="343.37" r="3.96" transform="matrix(1, -0.02, 0.02, 1, -334.29, -79.23)"/><circle class="cls-1" cx="704.1" cy="330.12" r="3.96" transform="translate(-336.04 -74.04) rotate(-1.28)"/><circle class="cls-1" cx="754.65" cy="347.11" r="3.96" transform="matrix(0.02, -1, 1, 0.02, 63.69, 1004.81)"/><circle class="cls-1" cx="464.27" cy="284.61" r="3.96"/><circle class="cls-1" cx="123.12" cy="277.7" r="3.96"/><circle class="cls-1" cx="459.3" cy="350.71" r="3.96" transform="translate(-231.16 711.6) rotate(-88.63)"/><circle class="cls-1" cx="385.71" cy="452.38" r="3.96" transform="translate(-396.76 746.74) rotate(-89.81)"/><circle class="cls-1" cx="98.5" cy="319.46" r="3.96"/><circle class="cls-1" cx="467.07" cy="332.86" r="3.96" transform="translate(-334.91 -81.16) rotate(-1.06)"/><circle class="cls-1" cx="141.7" cy="235.07" r="3.96"/><circle class="cls-1" cx="477.3" cy="309.82" r="3.96" transform="translate(-335.87 -78.74) rotate(-1.33)"/><circle class="cls-1" cx="529.72" cy="386.14" r="3.96" transform="translate(-206.64 809.72) rotate(-87.65)"/><circle class="cls-1" cx="114.34" cy="298.58" r="3.96"/><circle class="cls-1" cx="149.62" cy="219.67" r="3.96"/><circle class="cls-1" cx="437.41" cy="399.24" r="3.96" transform="translate(-345.57 -70.71) rotate(-2.46)"/><circle class="cls-1" cx="453.39" cy="366.55" r="3.96" transform="translate(-250.84 722.79) rotate(-88.87)"/><circle class="cls-1" cx="131.19" cy="261.57" r="3.96"/><circle class="cls-1" cx="470.24" cy="327.82" r="3.96" transform="translate(-195.74 701.55) rotate(-88.85)"/><circle class="cls-1" cx="473.84" cy="319.61" r="3.96" transform="translate(-335.02 -80.49) rotate(-1.13)"/><circle class="cls-1" cx="541.96" cy="404.86" r="3.96" transform="translate(-204.15 847.45) rotate(-88.68)"/><circle class="cls-1" cx="599.56" cy="327.53" r="3.96" transform="translate(-335.02 -78.28) rotate(-1.1)"/><circle class="cls-1" cx="401.91" cy="245.59" r="3.96"/><circle class="cls-1" cx="642.76" cy="339.91" r="3.96" transform="translate(-335.4 -77.14) rotate(-1.13)"/><circle class="cls-1" cx="731.75" cy="335.02" r="3.96" transform="matrix(0.02, -1, 1, 0.02, 53.34, 970.06)"/><circle class="cls-1" cx="111.6" cy="301.6" r="3.96"/><circle class="cls-1" cx="330.49" cy="329.97" r="3.96"/><circle class="cls-1" cx="459.59" cy="248.62" r="3.96" transform="translate(-127.86 612.79) rotate(-88.75)"/><circle class="cls-1" cx="249.41" cy="233.2" r="3.96"/><circle class="cls-1" cx="245.53" cy="231.91" r="3.96"/><circle class="cls-1" cx="691.14" cy="334.01" r="3.96" transform="translate(-6.38 917.43) rotate(-87.09)"/><circle class="cls-1" cx="190.52" cy="231.62" r="3.96"/><circle class="cls-1" cx="584.15" cy="423.87" r="3.96" transform="translate(-337.53 -77.61) rotate(-1.19)"/><circle class="cls-1" cx="345.97" cy="400.97" r="3.96" transform="translate(-336.19 -83.39) rotate(-1.06)"/><circle class="cls-1" cx="54.58" cy="307.07" r="3.96"/><circle class="cls-1" cx="417.83" cy="394.2" r="3.96" transform="translate(-336.33 -81.76) rotate(-1.1)"/><circle class="cls-1" cx="98.93" cy="309.09" r="3.96"/><circle class="cls-1" cx="454.26" cy="402.84" r="3.96" transform="translate(-337.98 -79.3) rotate(-1.32)"/><circle class="cls-1" cx="142.85" cy="312.26" r="3.96"/><circle class="cls-1" cx="500.05" cy="385.56" r="3.96" transform="translate(-336.6 -79.57) rotate(-1.17)"/><circle class="cls-1" cx="172.08" cy="277.55" r="3.96"/><circle class="cls-1" cx="175.83" cy="266.47" r="3.96"/><circle class="cls-1" cx="498.03" cy="372.03" r="3.96" transform="matrix(1, -0.02, 0.02, 1, -335.34, -80.98)"/><circle class="cls-1" cx="499.33" cy="385.85" r="3.96" transform="translate(-246.51 769.6) rotate(-86.33)"/><circle class="cls-1" cx="156.68" cy="307.22" r="3.96"/><circle class="cls-1" cx="136.37" cy="312.11" r="3.96"/><circle class="cls-1" cx="123.99" cy="312.11" r="3.96"/><circle class="cls-1" cx="98.35" cy="307.36" r="3.96"/><circle class="cls-1" cx="413.79" cy="392.33" r="3.96" transform="matrix(1, -0.02, 0.02, 1, -336.02, -82.14)"/><circle class="cls-1" cx="392.77" cy="394.35" r="3.96" transform="translate(-336.96 -81.6) rotate(-1.19)"/><circle class="cls-1" cx="841.05" cy="371.31" r="3.96" transform="translate(-336.38 -72.27) rotate(-1.19)"/><circle class="cls-1" cx="837.88" cy="374.91" r="3.96" transform="translate(-336.46 -72.34) rotate(-1.19)"/><circle class="cls-1" cx="527.56" cy="384.27" r="3.96" transform="translate(-197.25 813.23) rotate(-88.72)"/><circle class="cls-1" cx="551.46" cy="376.92" r="3.96" transform="translate(-165.24 830.87) rotate(-88.85)"/><circle class="cls-1" cx="560.68" cy="385.85" r="3.96" transform="translate(-190.2 829.95) rotate(-86.21)"/><circle class="cls-1" cx="580.12" cy="421.99" r="3.96" transform="translate(-193.75 894.76) rotate(-87.69)"/><circle class="cls-1" cx="605.17" cy="425.31" r="3.96" transform="translate(-334.41 -81.82) rotate(-0.76)"/><circle class="cls-1" cx="620.15" cy="425.45" r="3.96" transform="translate(-335.8 -79.53) rotate(-0.95)"/><circle class="cls-1" cx="514.88" cy="336.89" r="3.96" transform="translate(-335.58 -79.32) rotate(-1.17)"/><circle class="cls-1" cx="182.6" cy="251.2" r="3.96"/><circle class="cls-1" cx="375.63" cy="397.51" r="3.96" transform="translate(-335.67 -83.29) rotate(-0.99)"/><circle class="cls-1" cx="624.18" cy="426.03" r="3.96" transform="translate(-131.44 959.82) rotate(-89.93)"/><circle class="cls-1" cx="604.17" cy="426.17" r="3.96" transform="translate(-151.55 939.97) rotate(-89.93)"/><circle class="cls-1" cx="309.17" cy="336.74" r="3.96"/><circle class="cls-1" cx="192.68" cy="231.19" r="3.96"/><circle class="cls-1" cx="355.04" cy="527.55" r="3.96" transform="translate(-338.53 -83.2) rotate(-1.06)"/><circle class="cls-1" cx="354.32" cy="522.65" r="3.96" transform="translate(-505.07 775.15) rotate(-88.7)"/><circle class="cls-1" cx="414.87" cy="252.35" r="3.96"/><circle class="cls-1" cx="178.28" cy="263.15" r="3.96"/><circle class="cls-1" cx="486.66" cy="290.38" r="3.96" transform="translate(-334.32 -80.46) rotate(-1.1)"/><circle class="cls-1" cx="800.59" cy="381.67" r="3.96" transform="translate(-343.08 -58.41) rotate(-2.23)"/><circle class="cls-1" cx="194.55" cy="217.36" r="3.96"/><circle class="cls-1" cx="540.66" cy="313.13" r="3.96" transform="translate(-334.32 -80.19) rotate(-1.02)"/><circle class="cls-1" cx="539.65" cy="312.84" r="3.96" transform="translate(-336.54 -76.17) rotate(-1.44)"/><circle class="cls-1" cx="538.79" cy="312.41" r="3.96" transform="translate(-336.54 -76.18) rotate(-1.45)"/><circle class="cls-1" cx="539.51" cy="311.83" r="3.96" transform="translate(-330.16 -87.56) rotate(-0.24)"/><circle class="cls-1" cx="540.37" cy="312.12" r="3.96" transform="matrix(1, 0, 0, 1, -330.21, -87.46)"/><circle class="cls-1" cx="837.59" cy="380.09" r="3.96" transform="translate(-335.98 -73.7) rotate(-1.1)"/><circle class="cls-1" cx="448.07" cy="378.65" r="3.96" transform="translate(-268.66 728.87) rotate(-88.81)"/><circle class="cls-1" cx="843.35" cy="389.74" r="3.96" transform="translate(-334.54 -77.26) rotate(-0.85)"/><circle class="cls-1" cx="483.92" cy="575.5" r="3.96" transform="translate(-425.15 963.86) rotate(-89.43)"/><circle class="cls-1" cx="458.43" cy="407.16" r="3.96" transform="matrix(1, -0.02, 0.02, 1, -335.91, -81.75)"/><circle class="cls-1" cx="436.98" cy="420.55" r="3.96" transform="translate(-337.49 -80.68) rotate(-1.19)"/><circle class="cls-1" cx="449.79" cy="420.84" r="3.96" transform="translate(-334.41 745.77) rotate(-85.43)"/><circle class="cls-1" cx="445.91" cy="420.84" r="3.96" transform="translate(-330.53 750.02) rotate(-86.46)"/><circle class="cls-1" cx="150.48" cy="480.59" r="3.96"/><circle class="cls-1" cx="470.24" cy="576.65" r="3.96" transform="translate(-339.42 -81.06) rotate(-1.06)"/><circle class="cls-1" cx="477.66" cy="214.19" r="3.96"/><circle class="cls-1" cx="802.46" cy="295.99" r="3.96" transform="translate(-333.22 -77.7) rotate(-0.87)"/><circle class="cls-1" cx="754.36" cy="329.26" r="3.96" transform="translate(-343.5 -53.97) rotate(-2.7)"/><circle class="cls-1" cx="749.32" cy="341.79" r="3.96" transform="translate(61.77 993.29) rotate(-88.7)"/><circle class="cls-1" cx="554.63" cy="315.87" r="3.96" transform="translate(-115.7 765.23) rotate(-87.32)"/><circle class="cls-1" cx="556.64" cy="317.16" r="3.96" transform="translate(-101.91 776.6) rotate(-88.7)"/><circle class="cls-1" cx="561.54" cy="327.24" r="3.96" transform="translate(-334.79 -79.41) rotate(-1.06)"/><circle class="cls-1" cx="234.29" cy="235.22" r="3.96"/><circle class="cls-1" cx="236.74" cy="236.51" r="3.96"/><circle class="cls-1" cx="235.01" cy="238.82" r="3.96"/><circle class="cls-1" cx="669.97" cy="158.76" r="3.96" transform="translate(140.64 727.58) rotate(-86.4)"/><circle class="cls-1" cx="531.44" cy="248.33" r="3.96" transform="translate(-333.18 -80.34) rotate(-1.02)"/><circle class="cls-1" cx="578.68" cy="320.47" r="3.96" transform="translate(-341.78 -65.27) rotate(-2.41)"/><circle class="cls-1" cx="584.15" cy="320.47" r="3.96" transform="translate(-341.12 -66.38) rotate(-2.28)"/><circle class="cls-1" cx="343.3" cy="69.62" r="3.96"/><circle class="cls-1" cx="476" cy="406.3" r="3.96" transform="translate(-336.55 -80.64) rotate(-1.1)"/><circle class="cls-1" cx="467.94" cy="359.64" r="3.96" transform="translate(-230.78 729.66) rotate(-88.74)"/><circle class="cls-1" cx="129.89" cy="274.1" r="3.96"/><circle class="cls-1" cx="457.57" cy="366.12" r="3.96" transform="translate(-336.35 -80.26) rotate(-1.19)"/><circle class="cls-1" cx="463.91" cy="359.35" r="3.96" transform="translate(-235.31 724.64) rotate(-88.62)"/><circle class="cls-1" cx="143.72" cy="271.65" r="3.96"/><circle class="cls-1" cx="476.29" cy="362.95" r="3.96" transform="translate(-224.73 742.2) rotate(-88.88)"/><circle class="cls-1" cx="735.93" cy="319.75" r="3.96" transform="translate(-334.78 -75.81) rotate(-1.09)"/><circle class="cls-1" cx="728.87" cy="317.02" r="3.96" transform="matrix(0.02, -1, 1, 0.02, 65.6, 948.19)"/><circle class="cls-1" cx="473.7" cy="575.07" r="3.96" transform="translate(-345.96 -75.32) rotate(-1.73)"/><circle class="cls-1" cx="118.95" cy="224.56" r="3.96"/><circle class="cls-1" cx="449.65" cy="315.15" r="3.96" transform="translate(-335.11 -80.71) rotate(-1.16)"/><circle class="cls-1" cx="426.47" cy="323.79" r="3.96" transform="matrix(1, -0.02, 0.02, 1, -335.52, -80.86)"/><circle class="cls-1" cx="427.33" cy="324.36" r="3.96" transform="translate(-235.98 653.96) rotate(-88.63)"/><circle class="cls-1" cx="172.52" cy="484.77" r="3.96"/><circle class="cls-1" cx="172.95" cy="484.34" r="3.96"/><circle class="cls-1" cx="502.64" cy="575.07" r="3.96" transform="translate(-345.95 -74.44) rotate(-1.73)"/><circle class="cls-1" cx="677.46" cy="148.25" r="3.96" transform="translate(-331.56 -76.82) rotate(-1.1)"/><circle class="cls-1" cx="348.34" cy="59.1" r="3.96"/><circle class="cls-1" cx="348.2" cy="59.68" r="3.96"/><circle class="cls-1" cx="676.74" cy="150.12" r="3.96" transform="translate(-331.49 -77.31) rotate(-1.06)"/><circle class="cls-1" cx="30.53" cy="354.45" r="3.96"/><circle class="cls-1" cx="800.15" cy="301.03" r="3.96" transform="translate(-334.27 -75) rotate(-1.06)"/><circle class="cls-1" cx="801.02" cy="301.03" r="3.96" transform="translate(-334.27 -74.99) rotate(-1.06)"/><circle class="cls-1" cx="800.01" cy="302.33" r="3.96" transform="translate(-334.8 -73.59) rotate(-1.16)"/><circle class="cls-1" cx="801.02" cy="302.47" r="3.96" transform="translate(-334.61 -74.08) rotate(-1.12)"/><circle class="cls-1" cx="471.18" cy="213.91" r="3.96"/><circle class="cls-1" cx="472.04" cy="213.91" r="3.96"/><circle class="cls-1" cx="800.01" cy="305.07" r="3.96" transform="translate(149.52 1008.69) rotate(-88.81)"/><circle class="cls-1" cx="800.73" cy="305.07" r="3.96" transform="translate(148.73 1008.8) rotate(-88.7)"/><circle class="cls-1" cx="507.04" cy="273.67" r="3.96"/><circle class="cls-1" cx="507.76" cy="273.95" r="3.96"/><circle class="cls-1" cx="835.15" cy="364.68" r="3.96" transform="translate(-329.59 -88.13) rotate(-0.12)"/><circle class="cls-1" cx="543.32" cy="315.57" r="3.96"/><circle class="cls-1" cx="658.31" cy="400.97" r="3.96" transform="translate(-336.14 -77.61) rotate(-1.06)"/><circle class="cls-1" cx="443.17" cy="417.1" r="3.96" transform="translate(-343.99 -73.14) rotate(-2.13)"/><circle class="cls-1" cx="444.03" cy="417.1" r="3.96" transform="matrix(1, -0.04, 0.04, 1, -343.99, -73.11)"/><circle class="cls-1" cx="444.9" cy="417.1" r="3.96" transform="translate(-346.09 -70.65) rotate(-2.43)"/><circle class="cls-1" cx="445.76" cy="417.1" r="3.96" transform="translate(-345.31 -71.52) rotate(-2.31)"/><circle class="cls-1" cx="186.48" cy="329.54" r="3.96"/><circle class="cls-1" cx="185.76" cy="329.54" r="3.96"/><circle class="cls-1" cx="185.04" cy="330.26" r="3.96"/><circle class="cls-1" cx="513.73" cy="420.7" r="3.96" transform="translate(-337.7 -78.8) rotate(-1.22)"/><circle class="cls-1" cx="137.23" cy="286.48" r="3.96"/><circle class="cls-1" cx="464.05" cy="337.61" r="3.96" transform="translate(-335.88 -79.95) rotate(-1.21)"/><circle class="cls-1" cx="623.17" cy="350.71" r="3.96" transform="translate(-67.98 877.35) rotate(-88.93)"/><circle class="cls-1" cx="623.89" cy="350.43" r="3.96" transform="matrix(1, -0.02, 0.02, 1, -336.04, -76.72)"/><circle class="cls-1" cx="624.47" cy="350.28" r="3.96" transform="translate(-336.48 -75.86) rotate(-1.28)"/><circle class="cls-1" cx="417.75" cy="242.42" r="3.96"/><circle class="cls-1" cx="747.3" cy="332.71" r="3.96" transform="translate(-333.84 -78.38) rotate(-0.88)"/><circle class="cls-1" cx="748.02" cy="333" r="3.96" transform="translate(11.13 953.01) rotate(-84.11)"/><circle class="cls-1" cx="748.89" cy="333.43" r="3.96" transform="translate(48.96 974.53) rotate(-87.08)"/><circle class="cls-1" cx="748.02" cy="331.42" r="3.96" transform="translate(67.4 980.21) rotate(-88.43)"/><circle class="cls-1" cx="419.91" cy="241.99" r="3.96"/><circle class="cls-1" cx="420.63" cy="242.42" r="3.96"/><circle class="cls-1" cx="750.18" cy="332.71" r="3.96" transform="translate(-335.6 -74.17) rotate(-1.19)"/><circle class="cls-1" cx="586.16" cy="318.75" r="3.96" transform="translate(-334.85 -78.54) rotate(-1.1)"/><circle class="cls-1" cx="587.6" cy="318.75" r="3.96" transform="translate(-334.85 -78.51) rotate(-1.1)"/><circle class="cls-1" cx="258.77" cy="228.02" r="3.96"/><circle class="cls-1" cx="587.6" cy="317.02" r="3.96" transform="translate(-75.51 805.11) rotate(-88.3)"/><circle class="cls-1" cx="587.6" cy="316.15" r="3.96" transform="translate(-85.62 797.8) rotate(-87.21)"/><circle class="cls-1" cx="611.51" cy="282.31" r="3.96" transform="translate(-11.8 798.19) rotate(-88.85)"/><circle class="cls-1" cx="538.79" cy="250.49" r="3.96" transform="translate(-330.63 -85.96) rotate(-0.41)"/><circle class="cls-1" cx="538.07" cy="251.79" r="3.96" transform="translate(-333.57 -79.48) rotate(-1.1)"/><circle class="cls-1" cx="538.79" cy="251.79" r="3.96" transform="translate(-333.96 -78.59) rotate(-1.19)"/><circle class="cls-1" cx="538.07" cy="250.63" r="3.96" transform="translate(-330.5 -86.25) rotate(-0.38)"/><circle class="cls-1" cx="785.61" cy="287.07" r="3.96" transform="translate(-334.64 -73.45) rotate(-1.19)"/><circle class="cls-1" cx="806.35" cy="333.72" r="3.96" transform="translate(106.46 1033.72) rotate(-87.32)"/><circle class="cls-1" cx="613.09" cy="282.31" r="3.96" transform="translate(-11.9 798.97) rotate(-88.7)"/><circle class="cls-1" cx="489.68" cy="583.42" r="3.96" transform="matrix(1, -0.01, 0.01, 1, -334.69, -84.9)"/><circle class="cls-1" cx="489.54" cy="584.14" r="3.96" transform="translate(-427.69 978.69) rotate(-89.5)"/><circle class="cls-1" cx="488.39" cy="583.85" r="3.96" transform="translate(-344.86 -76.07) rotate(-1.59)"/><circle class="cls-1" cx="488.53" cy="583.13" r="3.96" transform="matrix(1, -0.01, 0.01, 1, -334.29, -85.25)"/><circle class="cls-1" cx="488.67" cy="582.27" r="3.96" transform="translate(-340.85 -79.56) rotate(-1.19)"/><circle class="cls-1" cx="489.83" cy="582.56" r="3.96" transform="translate(-431.63 970.28) rotate(-88.81)"/><circle class="cls-1" cx="489.97" cy="581.84" r="3.96" transform="translate(-339.52 -80.7) rotate(-1.06)"/><circle class="cls-1" cx="159.84" cy="491.68" r="3.96"/><circle class="cls-1" cx="60.48" cy="283.89" r="3.96"/><circle class="cls-1" cx="626.49" cy="337.61" r="3.96" transform="translate(-335.13 -77.91) rotate(-1.09)"/><circle class="cls-1" cx="82.8" cy="231.76" r="3.96"/><circle class="cls-1" cx="414.8" cy="322.63" r="3.96" transform="translate(-246 640.14) rotate(-88.7)"/><circle class="cls-1" cx="200.6" cy="154.58" r="3.96"/><circle class="cls-1" cx="450.66" cy="417.67" r="3.96" transform="translate(-336.86 -81.03) rotate(-1.11)"/><circle class="cls-1" cx="453.39" cy="418.11" r="3.96" transform="matrix(1, -0.02, 0.02, 1, -335.87, -82.1)"/><circle class="cls-1" cx="370.81" cy="22.96" r="3.96"/><circle class="cls-1" cx="696.62" cy="106.63" r="3.96" transform="translate(248.39 711.31) rotate(-88.95)"/><circle class="cls-1" cx="805.34" cy="297.87" r="3.96" transform="translate(108.47 983.79) rotate(-84.92)"/><circle class="cls-1" cx="252.87" cy="199.94" r="3.96"/><circle class="cls-1" cx="219.75" cy="220.96" r="3.96"/><circle class="cls-1" cx="581.99" cy="315.87" r="3.96" transform="translate(-86.54 794.41) rotate(-87.63)"/><circle class="cls-1" cx="134.21" cy="280.43" r="3.96"/><circle class="cls-1" cx="472.11" cy="565.71" r="3.96" transform="translate(-333.75 -85.72) rotate(-0.5)"/><circle class="cls-1" cx="160.28" cy="487.65" r="3.96"/><circle class="cls-1" cx="743.13" cy="319.03" r="3.96" transform="translate(77.02 964.2) rotate(-88.59)"/><circle class="cls-1" cx="93.31" cy="321.19" r="3.96"/><circle class="cls-1" cx="442.74" cy="418.97" r="3.96" transform="translate(-313.83 763.38) rotate(-88.85)"/><circle class="cls-1" cx="443.6" cy="418.97" r="3.96" transform="translate(-312.98 764.24) rotate(-88.85)"/><circle class="cls-1" cx="444.47" cy="419.11" r="3.96" transform="matrix(0.02, -1, 1, 0.02, -311.53, 765.98)"/><circle class="cls-1" cx="442.74" cy="420.84" r="3.96" transform="translate(-333.5 746.86) rotate(-86.46)"/><circle class="cls-1" cx="443.6" cy="420.84" r="3.96" transform="translate(-332.69 747.72) rotate(-86.46)"/><circle class="cls-1" cx="444.47" cy="420.84" r="3.96" transform="translate(-329.52 751.09) rotate(-86.78)"/><circle class="cls-1" cx="312.05" cy="347.39" r="3.96"/><circle class="cls-1" cx="806.06" cy="292.54" r="3.96" transform="matrix(0.02, -1, 1, 0.02, 168.64, 1002.72)"/><circle class="cls-1" cx="806.78" cy="292.68" r="3.96" transform="translate(171.9 1004.62) rotate(-89.05)"/><circle class="cls-1" cx="807.5" cy="292.68" r="3.96" transform="translate(166.79 1003.1) rotate(-88.63)"/><circle class="cls-1" cx="808.36" cy="292.68" r="3.96" transform="translate(170.75 1005.17) rotate(-88.85)"/><circle class="cls-1" cx="809.08" cy="292.68" r="3.96" transform="translate(170.79 1005.63) rotate(-88.81)"/><circle class="cls-1" cx="806.63" cy="294.41" r="3.96" transform="translate(-330.18 -86.15) rotate(-0.26)"/><circle class="cls-1" cx="807.5" cy="294.41" r="3.96" transform="translate(-330.66 -84.79) rotate(-0.36)"/><circle class="cls-1" cx="808.22" cy="294.55" r="3.96" transform="translate(-330.57 -85.04) rotate(-0.34)"/><circle class="cls-1" cx="809.08" cy="294.55" r="3.96" transform="translate(-330.42 -85.48) rotate(-0.31)"/><circle class="cls-1" cx="512.51" cy="286.34" r="3.96"/><circle class="cls-1" cx="96.63" cy="233.2" r="3.96"/><circle class="cls-1" cx="801.45" cy="284.33" r="3.96" transform="translate(-334.43 -73.57) rotate(-1.16)"/><circle class="cls-1" cx="767.75" cy="406.87" r="3.96" transform="translate(14.72 1075.32) rotate(-88.7)"/><circle class="cls-1" cx="505.67" cy="442.44" r="3.96" transform="translate(-335.9 -81.65) rotate(-0.92)"/><circle class="cls-1" cx="506.53" cy="442.44" r="3.96" transform="translate(-335.22 -82.45) rotate(-0.83)"/><circle class="cls-1" cx="500.05" cy="434.52" r="3.96" transform="translate(-345.83 -69.49) rotate(-2.29)"/><circle class="cls-1" cx="501.06" cy="434.52" r="3.96" transform="translate(-346.17 -69.03) rotate(-2.34)"/><circle class="cls-1" cx="496.16" cy="420.55" r="3.96" transform="translate(-337.95 -78.86) rotate(-1.26)"/><circle class="cls-1" cx="433.81" cy="386.14" r="3.96" transform="translate(-298.62 713.89) rotate(-87.65)"/><circle class="cls-1" cx="434.53" cy="386.43" r="3.96" transform="translate(-299.69 713.46) rotate(-87.45)"/><circle class="cls-1" cx="405.01" cy="373.03" r="3.96" transform="translate(-341.76 -75.32) rotate(-2.03)"/><circle class="cls-1" cx="405.87" cy="372.89" r="3.96" transform="translate(-341.76 -75.28) rotate(-2.03)"/><circle class="cls-1" cx="136.51" cy="286.05" r="3.96"/><circle class="cls-1" cx="748.46" cy="328.97" r="3.96" transform="translate(-344.74 -50.98) rotate(-2.94)"/><circle class="cls-1" cx="749.32" cy="329.4" r="3.96" transform="translate(-330.08 -87.01) rotate(-0.22)"/><circle class="cls-1" cx="750.04" cy="329.83" r="3.96" transform="translate(-336.02 -73) rotate(-1.28)"/><circle class="cls-1" cx="750.9" cy="330.27" r="3.96" transform="translate(-336.03 -72.99) rotate(-1.28)"/><circle class="cls-1" cx="422.94" cy="238.67" r="3.96"/><circle class="cls-1" cx="422.07" cy="238.24" r="3.96"/><circle class="cls-1" cx="750.18" cy="327.82" r="3.96" transform="translate(76.58 980.5) rotate(-88.7)"/><circle class="cls-1" cx="749.32" cy="327.24" r="3.96" transform="translate(-335.48 -74.19) rotate(-1.19)"/><circle class="cls-1" cx="750.33" cy="326.23" r="3.96" transform="translate(78.31 979.1) rotate(-88.7)"/><circle class="cls-1" cx="423.08" cy="237.23" r="3.96"/><circle class="cls-1" cx="224.64" cy="220.67" r="3.96"/><circle class="cls-1" cx="225.36" cy="220.67" r="3.96"/><circle class="cls-1" cx="226.23" cy="220.82" r="3.96"/><circle class="cls-1" cx="226.95" cy="220.82" r="3.96"/><circle class="cls-1" cx="227.96" cy="220.96" r="3.96"/><circle class="cls-1" cx="228.82" cy="220.96" r="3.96"/><circle class="cls-1" cx="532.31" cy="242.71" r="3.96" transform="translate(-336.52 -72.25) rotate(-1.88)"/><circle class="cls-1" cx="533.32" cy="242.71" r="3.96" transform="translate(-335.67 -74.23) rotate(-1.67)"/><circle class="cls-1" cx="751.34" cy="259.85" r="3.96" transform="translate(-335.33 -70.27) rotate(-1.49)"/><circle class="cls-1" cx="710.58" cy="368.14" r="3.96" transform="translate(-26.59 966.54) rotate(-86.71)"/><circle class="cls-1" cx="746.58" cy="423.87" r="3.96" transform="translate(-337.49 -74.23) rotate(-1.19)"/><circle class="cls-1" cx="462.68" cy="214.05" r="3.96"/><circle class="cls-1" cx="531.44" cy="246.03" r="3.96" transform="translate(-70.9 674) rotate(-87)"/><circle class="cls-1" cx="624.61" cy="431.64" r="3.96" transform="translate(-151.02 955.64) rotate(-88.6)"/><circle class="cls-1" cx="521.08" cy="326.09" r="3.96" transform="translate(-144.62 750.4) rotate(-88.81)"/><circle class="cls-1" cx="511.57" cy="364.83" r="3.96" transform="translate(-329.36 -89.13) rotate(-0.08)"/><circle class="cls-1" cx="727.58" cy="320.47" r="3.96" transform="translate(-339.87 -63.54) rotate(-2.06)"/><circle class="cls-1" cx="731.32" cy="320.91" r="3.96" transform="translate(-329.95 -87.3) rotate(-0.2)"/><circle class="cls-1" cx="725.85" cy="319.32" r="3.96" transform="translate(-334.78 -75.99) rotate(-1.09)"/><circle class="cls-1" cx="725.56" cy="318.46" r="3.96" transform="translate(-335.83 -73.42) rotate(-1.29)"/><circle class="cls-1" cx="723.4" cy="317.16" r="3.96" transform="matrix(0.02, -1, 1, 0.02, 62.41, 943.94)"/><circle class="cls-1" cx="723.26" cy="318.6" r="3.96" transform="translate(-335.31 -74.74) rotate(-1.19)"/><circle class="cls-1" cx="401.05" cy="221.39" r="3.96"/><circle class="cls-1" cx="728.3" cy="313.42" r="3.96" transform="translate(-335.2 -74.63) rotate(-1.19)"/><circle class="cls-1" cx="729.16" cy="313.13" r="3.96" transform="translate(-335.19 -74.62) rotate(-1.19)"/><circle class="cls-1" cx="404.22" cy="227.73" r="3.96"/><circle class="cls-1" cx="739.67" cy="318.46" r="3.96" transform="translate(-335.3 -74.4) rotate(-1.19)"/><circle class="cls-1" cx="410.98" cy="228.45" r="3.96"/><circle class="cls-1" cx="410.7" cy="228.31" r="3.96"/><circle class="cls-1" cx="730.74" cy="320.47" r="3.96" transform="translate(-340.22 -62.53) rotate(-2.13)"/><circle class="cls-1" cx="830.25" cy="325.8" r="3.96" transform="translate(-336.08 -70.76) rotate(-1.31)"/><circle class="cls-1" cx="370.52" cy="52.77" r="3.96"/><circle class="cls-1" cx="596.53" cy="385.42" r="3.96" transform="translate(-336.73 -77.36) rotate(-1.19)"/><circle class="cls-1" cx="806.2" cy="287.35" r="3.96" transform="translate(171.78 996.96) rotate(-88.7)"/><circle class="cls-1" cx="801.45" cy="337.47" r="3.96" transform="translate(-334.9 -75.07) rotate(-1.05)"/><circle class="cls-1" cx="355.54" cy="42.11" r="3.96"/><circle class="cls-1" cx="790.65" cy="325.51" r="3.96" transform="translate(-335.44 -73.33) rotate(-1.19)"/><circle class="cls-1" cx="800.44" cy="336.89" r="3.96" transform="translate(-335.09 -74.58) rotate(-1.09)"/><circle class="cls-1" cx="439.07" cy="289.36" r="3.96"/><circle class="cls-1" cx="838.75" cy="322.63" r="3.96" transform="translate(172.53 1065.69) rotate(-88.99)"/><circle class="cls-1" cx="462.11" cy="218.95" r="3.96"/><circle class="cls-1" cx="694.02" cy="131.11" r="3.96" transform="translate(219.66 732.39) rotate(-88.81)"/><circle class="cls-1" cx="833.71" cy="319.61" r="3.96" transform="translate(-335.36 -72.27) rotate(-1.2)"/><circle class="cls-1" cx="706.7" cy="239.55" r="3.96" transform="translate(-334.48 -72.51) rotate(-1.4)"/><circle class="cls-1" cx="354.75" cy="519.48" r="3.96" transform="translate(-501.48 772.48) rotate(-88.7)"/><circle class="cls-1" cx="712.46" cy="250.63" r="3.96" transform="translate(-330.44 -85.24) rotate(-0.37)"/><circle class="cls-1" cx="632.53" cy="336.31" r="3.96" transform="translate(-334.21 -79.54) rotate(-0.93)"/><circle class="cls-1" cx="489.68" cy="329.98" r="3.96" transform="translate(-336.69 -77.9) rotate(-1.39)"/><circle class="cls-1" cx="756.09" cy="346.54" r="3.96" transform="matrix(1, -0.02, 0.02, 1, -335.12, -75.81)"/><circle class="cls-1" cx="622.31" cy="353.59" r="3.96" transform="translate(-336.06 -76.83) rotate(-1.19)"/><circle class="cls-1" cx="479.03" cy="611.5" r="3.96" transform="translate(-334.36 -85.49) rotate(-0.52)"/><circle class="cls-1" cx="460.31" cy="611.21" r="3.96" transform="translate(-334.37 -85.65) rotate(-0.52)"/><circle class="cls-1" cx="497.75" cy="581.84" r="3.96" transform="translate(-339.52 -80.55) rotate(-1.06)"/><circle class="cls-1" cx="66.39" cy="505.51" r="3.96"/><circle class="cls-1" cx="250.13" cy="133.41" r="3.96"/><circle class="cls-1" cx="621.88" cy="372.03" r="3.96" transform="matrix(1, -0.02, 0.02, 1, -335.32, -78.79)"/><circle class="cls-1" cx="189.94" cy="465.33" r="3.96"/><circle class="cls-1" cx="575.08" cy="529.28" r="3.96" transform="translate(-339.73 -77.78) rotate(-1.19)"/><circle class="cls-1" cx="280.95" cy="440.27" r="3.96"/><circle class="cls-1" cx="341.58" cy="460.29" r="3.96"/><circle class="cls-1" cx="96.05" cy="470.23" r="3.96"/><circle class="cls-1" cx="99.51" cy="466.63" r="3.96"/><circle class="cls-1" cx="34.56" cy="456.11" r="3.96"/><circle class="cls-1" cx="84.24" cy="456.11" r="3.96"/><circle class="cls-1" cx="417.11" cy="536.33" r="3.96" transform="translate(-339.91 -81.06) rotate(-1.19)"/><circle class="cls-1" cx="694.02" cy="364.54" r="3.96" transform="translate(-329.39 -88.81) rotate(-0.09)"/><circle class="cls-1" cx="769.91" cy="412.06" r="3.96" transform="translate(15.25 1084.58) rotate(-88.97)"/><circle class="cls-1" cx="698.2" cy="320.76" r="3.96" transform="translate(-330.07 -87.15) rotate(-0.22)"/><circle class="cls-1" cx="382.47" cy="62.7" r="3.96"/><circle class="cls-1" cx="695.75" cy="173.3" r="3.96" transform="translate(179.17 775.43) rotate(-88.81)"/><circle class="cls-1" cx="764.73" cy="400.97" r="3.96" transform="matrix(1, -0.02, 0.02, 1, -336.4, -75.09)"/><circle class="cls-1" cx="758.25" cy="396.22" r="3.96" transform="matrix(0.02, -1, 1, 0.02, 17.5, 1056.19)"/><circle class="cls-1" cx="372.18" cy="422.86" r="3.96" transform="translate(-388.23 695.03) rotate(-88.64)"/><circle class="cls-1" cx="393.63" cy="406.73" r="3.96" transform="matrix(0.02, -1, 1, 0.02, -349.72, 702.29)"/><circle class="cls-1" cx="356.48" cy="415.51" r="3.96" transform="translate(-394.91 673.75) rotate(-88.85)"/><circle class="cls-1" cx="30.24" cy="315.71" r="3.96"/><circle class="cls-1" cx="377.5" cy="400.25" r="3.96" transform="translate(-336.29 -82.69) rotate(-1.08)"/><circle class="cls-1" cx="231.41" cy="200.23" r="3.96"/><circle class="cls-1" cx="560.53" cy="285.63" r="3.96" transform="translate(-330.38 -86.79) rotate(-0.31)"/><circle class="cls-1" cx="570.61" cy="316.59" r="3.96" transform="translate(-102.19 781.26) rotate(-87.21)"/><circle class="cls-1" cx="200.31" cy="207.43" r="3.96"/><circle class="cls-1" cx="604.02" cy="336.46" r="3.96" transform="translate(-73.77 843.48) rotate(-88.81)"/><circle class="cls-1" cx="531.59" cy="315.72" r="3.96" transform="translate(-147.42 735.41) rotate(-86.21)"/><circle class="cls-1" cx="567.59" cy="319.03" r="3.96" transform="translate(-93.08 789.37) rotate(-88.7)"/><circle class="cls-1" cx="243.65" cy="220.82" r="3.96"/><circle class="cls-1" cx="574.79" cy="303.05" r="3.96" transform="translate(-330.17 -87.32) rotate(-0.25)"/><circle class="cls-1" cx="249.85" cy="206.71" r="3.96"/><circle class="cls-1" cx="581.84" cy="292.39" r="3.96" transform="translate(-333.89 -79.57) rotate(-1.01)"/><circle class="cls-1" cx="584.29" cy="285.77" r="3.96" transform="translate(-330.3 -86.83) rotate(-0.3)"/><circle class="cls-1" cx="236.02" cy="221.25" r="3.96"/><circle class="cls-1" cx="566.58" cy="301.75" r="3.96" transform="translate(-334.65 -78.67) rotate(-1.13)"/><circle class="cls-1" cx="236.31" cy="203.54" r="3.96"/><circle class="cls-1" cx="725.7" cy="383.26" r="3.96" transform="matrix(1, -0.02, 0.02, 1, -336.78, -74.41)"/><circle class="cls-1" cx="729.45" cy="399.24" r="3.96" transform="translate(-345.78 -57.2) rotate(-2.54)"/><circle class="cls-1" cx="406.95" cy="281.01" r="3.96"/><circle class="cls-1" cx="368.86" cy="406.87" r="3.96" transform="matrix(0.02, -1, 1, 0.02, -374.13, 677.67)"/><circle class="cls-1" cx="221.91" cy="175.17" r="3.96"/><circle class="cls-1" cx="211.97" cy="184.24" r="3.96"/><circle class="cls-1" cx="220.47" cy="185.83" r="3.96"/><circle class="cls-1" cx="557.51" cy="276.27" r="3.96" transform="translate(-342.02 -61.47) rotate(-2.88)"/><circle class="cls-1" cx="22.75" cy="379.51" r="3.96"/><circle class="cls-1" cx="677.17" cy="327.53" r="3.96" transform="translate(-334.78 -77.27) rotate(-1.06)"/><circle class="cls-1" cx="690.86" cy="345.24" r="3.96" transform="translate(2.47 938.89) rotate(-88.81)"/><circle class="cls-1" cx="736.65" cy="459" r="3.96" transform="matrix(1, -0.02, 0.02, 1, -337.52, -75.62)"/><circle class="cls-1" cx="55.44" cy="340.48" r="3.96"/><circle class="cls-1" cx="379.38" cy="436.68" r="3.96" transform="translate(-393.63 717.39) rotate(-88.85)"/><circle class="cls-1" cx="234.73" cy="347.39" r="3.96"/><circle class="cls-1" cx="514.74" cy="424.01" r="3.96" transform="translate(-336.59 -80.26) rotate(-1.06)"/><circle class="cls-1" cx="205.64" cy="344.23" r="3.96"/><circle class="cls-1" cx="474.99" cy="401.69" r="3.96" transform="translate(-266.21 777.58) rotate(-88.7)"/><circle class="cls-1" cx="154.23" cy="500.32" r="3.96"/><circle class="cls-1" cx="187.92" cy="535.17" r="3.96"/><circle class="cls-1" cx="485.65" cy="568.16" r="3.96" transform="translate(-338.34 -81.6) rotate(-0.97)"/><circle class="cls-1" cx="475.14" cy="571.61" r="3.96" transform="translate(-339.73 -80.63) rotate(-1.1)"/><circle class="cls-1" cx="463.76" cy="561.1" r="3.96" transform="translate(-339.6 -80.78) rotate(-1.11)"/><circle class="cls-1" cx="74.31" cy="473.68" r="3.96"/><circle class="cls-1" cx="418.83" cy="565.56" r="3.96" transform="translate(-334.34 -85.74) rotate(-0.56)"/><circle class="cls-1" cx="536.92" cy="586.01" r="3.96" transform="translate(-391.64 1017.71) rotate(-88.52)"/><circle class="cls-1" cx="392.48" cy="614.96" r="3.96" transform="translate(-557.94 906.98) rotate(-89.02)"/><circle class="cls-1" cx="372.03" cy="572.04" r="3.96" transform="translate(-536.45 842.25) rotate(-88.81)"/><circle class="cls-1" cx="366.85" cy="558.65" r="3.96" transform="translate(-334.93 -85.81) rotate(-0.63)"/><circle class="cls-1" cx="393.2" cy="600.99" r="3.96" transform="matrix(1, -0.01, 0.01, 1, -333.84, -86.56)"/><circle class="cls-1" cx="22.32" cy="443.87" r="3.96"/><circle class="cls-1" cx="397.81" cy="536.76" r="3.96" transform="translate(-475.63 833.9) rotate(-88.85)"/><circle class="cls-1" cx="549.73" cy="439.71" r="3.96" transform="translate(-226.89 893.01) rotate(-89.15)"/><circle class="cls-1" cx="188.5" cy="359.49" r="3.96"/><circle class="cls-1" cx="507.4" cy="415.23" r="3.96" transform="translate(-336.43 -80.4) rotate(-1.06)"/><circle class="cls-1" cx="233" cy="309.23" r="3.96"/><circle class="cls-1" cx="446.34" cy="501.19" r="3.96" transform="translate(-338.03 -81.52) rotate(-1.06)"/><circle class="cls-1" cx="465.92" cy="509.98" r="3.96" transform="translate(-376.9 881.61) rotate(-89.5)"/><circle class="cls-1" cx="124.13" cy="437.11" r="3.96"/><circle class="cls-1" cx="449.79" cy="524.38" r="3.96" transform="translate(-414.64 870.89) rotate(-88.55)"/><circle class="cls-1" cx="556.64" cy="506.09" r="3.96" transform="translate(-336.19 -81.65) rotate(-0.84)"/><circle class="cls-1" cx="580.26" cy="508.68" r="3.96" transform="translate(-287.64 970.96) rotate(-86.93)"/><circle class="cls-1" cx="241.64" cy="379.36" r="3.96"/><circle class="cls-1" cx="238.61" cy="358.19" r="3.96"/><circle class="cls-1" cx="248.26" cy="389.73" r="3.96"/><circle class="cls-1" cx="242.79" cy="354.59" r="3.96"/><circle class="cls-1" cx="308.45" cy="310.1" r="3.96"/><circle class="cls-1" cx="302.26" cy="338.47" r="3.96"/><circle class="cls-1" cx="628.79" cy="442.15" r="3.96" transform="translate(-155.19 971.74) rotate(-88.81)"/><circle class="cls-1" cx="632.82" cy="449.21" r="3.96" transform="translate(-159.48 981.8) rotate(-88.7)"/><circle class="cls-1" cx="657.59" cy="446.62" r="3.96" transform="translate(-337.99 -76.08) rotate(-1.19)"/><circle class="cls-1" cx="639.88" cy="473.26" r="3.96" transform="translate(-337.81 -77.48) rotate(-1.1)"/><circle class="cls-1" cx="305" cy="382.67" r="3.96"/><circle class="cls-1" cx="303.99" cy="447.62" r="3.96"/><circle class="cls-1" cx="630.23" cy="533.16" r="3.96" transform="translate(-244.77 1062.29) rotate(-88.81)"/><circle class="cls-1" cx="121.25" cy="514.43" r="3.96"/><circle class="cls-1" cx="627.35" cy="534.75" r="3.96" transform="translate(-339.83 -76.69) rotate(-1.19)"/><circle class="cls-1" cx="599.41" cy="522.94" r="3.96" transform="matrix(0.02, -1, 1, 0.02, -264.72, 1021.47)"/><circle class="cls-1" cx="372.75" cy="538.2" r="3.96" transform="translate(-339.11 -82.6) rotate(-1.1)"/><circle class="cls-1" cx="64.23" cy="430.05" r="3.96"/><circle class="cls-1" cx="534.18" cy="565.71" r="3.96" transform="translate(-334.95 -84.02) rotate(-0.62)"/><circle class="cls-1" cx="244.09" cy="505.79" r="3.96"/><circle class="cls-1" cx="657.59" cy="483.63" r="3.96" transform="translate(-338.76 -76.07) rotate(-1.19)"/><circle class="cls-1" cx="580.4" cy="424.87" r="3.96" transform="translate(-335.23 -80.99) rotate(-0.87)"/><circle class="cls-1" cx="516.04" cy="468.07" r="3.96" transform="translate(-337.73 -79.86) rotate(-1.1)"/><circle class="cls-1" cx="457.43" cy="491.26" r="3.96" transform="translate(-386.4 831.92) rotate(-86.94)"/><circle class="cls-1" cx="641.03" cy="374.76" r="3.96" transform="translate(-336.49 -76.44) rotate(-1.19)"/><circle class="cls-1" cx="242.21" cy="465.19" r="3.96"/><circle class="cls-1" cx="72.87" cy="483.19" r="3.96"/><circle class="cls-1" cx="45.07" cy="372.02" r="3.96"/><circle class="cls-1" cx="270.87" cy="338.32" r="3.96"/><circle class="cls-1" cx="570.9" cy="446.91" r="3.96" transform="translate(-338.01 -77.88) rotate(-1.19)"/><circle class="cls-1" cx="110.74" cy="477.14" r="3.96"/><circle class="cls-1" cx="446.48" cy="560.96" r="3.96" transform="translate(-340.41 -80.45) rotate(-1.19)"/><circle class="cls-1" cx="487.38" cy="542.24" r="3.96" transform="translate(-394.62 927.31) rotate(-88.7)"/><circle class="cls-1" cx="475.57" cy="562.25" r="3.96" transform="translate(-426.04 935.22) rotate(-88.71)"/><circle class="cls-1" cx="478.45" cy="555.63" r="3.96" transform="translate(-339.03 -80.91) rotate(-1.06)"/><circle class="cls-1" cx="523.96" cy="541.52" r="3.96" transform="translate(-338.76 -80.07) rotate(-1.06)"/><circle class="cls-1" cx="523.38" cy="517.18" r="3.96" transform="translate(-338.67 -79.71) rotate(-1.1)"/><circle class="cls-1" cx="536.63" cy="561.24" r="3.96" transform="translate(-381.4 977.16) rotate(-86.93)"/><circle class="cls-1" cx="534.04" cy="554.19" r="3.96" transform="translate(-359.55 987.17) rotate(-88.85)"/><circle class="cls-1" cx="561.4" cy="561.96" r="3.96" transform="translate(-341.87 1020.72) rotate(-88.71)"/><circle class="cls-1" cx="189.51" cy="482.75" r="3.96"/><circle class="cls-1" cx="514.45" cy="578.96" r="3.96" transform="translate(-419.65 972.31) rotate(-86.98)"/><circle class="cls-1" cx="505.67" cy="585.44" r="3.96" transform="translate(-340.91 -79.21) rotate(-1.19)"/><circle class="cls-1" cx="552.76" cy="581.98" r="3.96" transform="translate(-339.91 -79.13) rotate(-1.1)"/><circle class="cls-1" cx="568.02" cy="578.38" r="3.96" transform="translate(-339.44 -79.25) rotate(-1.06)"/><circle class="cls-1" cx="241.93" cy="462.02" r="3.96"/><circle class="cls-1" cx="249.85" cy="435.52" r="3.96"/><circle class="cls-1" cx="240.34" cy="424.58" r="3.96"/><circle class="cls-1" cx="591.78" cy="509.83" r="3.96" transform="translate(-252.44 1006.92) rotate(-89.46)"/><circle class="cls-1" cx="266.98" cy="439.12" r="3.96"/><circle class="cls-1" cx="553.62" cy="543.24" r="3.96" transform="translate(-339.17 -79.12) rotate(-1.1)"/><circle class="cls-1" cx="461.46" cy="600.12" r="3.96" transform="translate(-476.97 959.12) rotate(-88.81)"/><circle class="cls-1" cx="458.15" cy="599.69" r="3.96" transform="translate(-338.95 -82) rotate(-0.97)"/><circle class="cls-1" cx="422" cy="569.88" r="3.96" transform="translate(-340.67 -80.91) rotate(-1.2)"/><circle class="cls-1" cx="438.85" cy="582.56" r="3.96" transform="translate(-481.55 919.32) rotate(-88.81)"/><circle class="cls-1" cx="128.02" cy="463.75" r="3.96"/><circle class="cls-1" cx="623.75" cy="402.84" r="3.96" transform="translate(-337.49 -76.13) rotate(-1.25)"/><circle class="cls-1" cx="688.26" cy="382.54" r="3.96" transform="translate(-336.84 -75.08) rotate(-1.22)"/><circle class="cls-1" cx="727.14" cy="424.87" r="3.96" transform="translate(-335.21 -78.76) rotate(-0.87)"/><circle class="cls-1" cx="713.46" cy="435.1" r="3.96" transform="matrix(0, -1, 1, 0, -52.07, 1057.72)"/><circle class="cls-1" cx="712.31" cy="443.74" r="3.96" transform="translate(-61.73 1065.27) rotate(-89.88)"/><circle class="cls-1" cx="726.42" cy="369.15" r="3.96" transform="translate(-4.98 987.73) rotate(-87.33)"/><circle class="cls-1" cx="422.51" cy="323.2" r="3.96"/><circle class="cls-1" cx="750.33" cy="420.55" r="3.96" transform="translate(-337.42 -74.15) rotate(-1.19)"/><circle class="cls-1" cx="441.37" cy="288.21" r="3.96"/><circle class="cls-1" cx="434.89" cy="284.61" r="3.96"/><circle class="cls-1" cx="655.29" cy="361.37" r="3.96" transform="translate(-47.01 919.97) rotate(-88.94)"/><circle class="cls-1" cx="332.5" cy="266.75" r="3.96"/><circle class="cls-1" cx="510.28" cy="426.03" r="3.96" transform="matrix(0, -1, 1, 0, -245.26, 845.87)"/><circle class="cls-1" cx="341.22" cy="420.7" r="3.96" transform="translate(-336.85 -83.23) rotate(-1.1)"/><circle class="cls-1" cx="333.3" cy="421.13" r="3.96" transform="translate(-437.3 636.69) rotate(-86.3)"/><circle class="cls-1" cx="105.99" cy="312.11" r="3.96"/><circle class="cls-1" cx="171.94" cy="302.03" r="3.96"/><circle class="cls-1" cx="195.12" cy="220.96" r="3.96"/><circle class="cls-1" cx="509.84" cy="294.41" r="3.96" transform="translate(-330.69 -86.62) rotate(-0.36)"/><circle class="cls-1" cx="420.13" cy="334.15" r="3.96" transform="translate(-262.11 648.36) rotate(-87.32)"/><circle class="cls-1" cx="479.46" cy="361.23" r="3.96" transform="matrix(0.02, -1, 1, 0.02, -220.11, 743.5)"/><circle class="cls-1" cx="468.66" cy="331.13" r="3.96" transform="translate(-335.41 -80.36) rotate(-1.15)"/><circle class="cls-1" cx="127.01" cy="242.13" r="3.96"/><circle class="cls-1" cx="523.81" cy="290.95" r="3.96" transform="translate(-107.45 718.36) rotate(-88.74)"/><circle class="cls-1" cx="528.71" cy="239.98" r="3.96" transform="translate(-52.05 673.23) rotate(-88.7)"/><circle class="cls-1" cx="494.43" cy="283.32" r="3.96" transform="translate(-334.19 -80.31) rotate(-1.1)"/><circle class="cls-1" cx="498.61" cy="283.32" r="3.96" transform="translate(-334.18 -80.23) rotate(-1.1)"/><circle class="cls-1" cx="450.23" cy="234.36" r="3.96" transform="matrix(1, -0.02, 0.02, 1, -333.85, -79.96)"/><circle class="cls-1" cx="521.08" cy="213.91" r="3.96" transform="translate(-32.47 640.56) rotate(-88.81)"/><circle class="cls-1" cx="539.08" cy="197.79" r="3.96" transform="translate(-330.52 -85.19) rotate(-0.5)"/><circle class="cls-1" cx="549.16" cy="197.64" r="3.96" transform="translate(-336.25 -67.89) rotate(-2.28)"/><circle class="cls-1" cx="594.08" cy="222.41" r="3.96" transform="translate(31.01 722.07) rotate(-88.85)"/><circle class="cls-1" cx="257.62" cy="129.95" r="3.96"/><circle class="cls-1" cx="573.35" cy="253.95" r="3.96" transform="translate(-22.93 731.26) rotate(-88.64)"/><circle class="cls-1" cx="615.54" cy="260.86" r="3.96" transform="translate(-334.04 -77.22) rotate(-1.17)"/><circle class="cls-1" cx="615.54" cy="285.91" r="3.96" transform="translate(-330.39 -86.48) rotate(-0.31)"/><circle class="cls-1" cx="652.41" cy="281.31" r="3.96" transform="translate(9.64 828.79) rotate(-87.1)"/><circle class="cls-1" cx="326.31" cy="253.07" r="3.96"/><circle class="cls-1" cx="359.86" cy="131.54" r="3.96"/><circle class="cls-1" cx="648.09" cy="224.43" r="3.96" transform="translate(-330.91 -83.77) rotate(-0.54)"/><circle class="cls-1" cx="651.25" cy="209.88" r="3.96" transform="matrix(1, -0.02, 0.02, 1, -333.29, -75.49)"/><circle class="cls-1" cx="647.8" cy="204.41" r="3.96" transform="translate(-332.5 -77.84) rotate(-1.06)"/><circle class="cls-1" cx="644.49" cy="214.2" r="3.96" transform="translate(-333.66 -74.74) rotate(-1.34)"/><circle class="cls-1" cx="332.22" cy="82.58" r="3.96"/><circle class="cls-1" cx="665.08" cy="171.29" r="3.96" transform="translate(-332.45 -75.15) rotate(-1.26)"/><circle class="cls-1" cx="672.28" cy="140.18" r="3.96" transform="matrix(0.08, -1, 1, 0.08, 153.1, 710.15)"/><circle class="cls-1" cx="678.9" cy="176.19" r="3.96" transform="matrix(1, -0.02, 0.02, 1, -332.57, -74.79)"/><circle class="cls-1" cx="718.79" cy="167.83" r="3.96" transform="translate(207.2 793.11) rotate(-88.81)"/><circle class="cls-1" cx="690.57" cy="156.89" r="3.96" transform="translate(-331.95 -75.45) rotate(-1.19)"/><circle class="cls-1" cx="710.87" cy="176.76" r="3.96" transform="translate(189.18 793.57) rotate(-88.7)"/><circle class="cls-1" cx="699.5" cy="196.78" r="3.96" transform="translate(-333.35 -73.04) rotate(-1.37)"/><circle class="cls-1" cx="374.84" cy="130.1" r="3.96"/><circle class="cls-1" cx="414.44" cy="182.66" r="3.96"/><circle class="cls-1" cx="699.21" cy="101.88" r="3.96" transform="translate(-331.81 -66.78) rotate(-1.89)"/><circle class="cls-1" cx="377" cy="22.38" r="3.96"/><circle class="cls-1" cx="699.64" cy="123.34" r="3.96" transform="translate(200.09 723.08) rotate(-86.09)"/><circle class="cls-1" cx="697.05" cy="128.95" r="3.96" transform="translate(-331.36 -75.32) rotate(-1.19)"/><circle class="cls-1" cx="709.14" cy="301.75" r="3.96" transform="translate(-334.81 -75.41) rotate(-1.16)"/><circle class="cls-1" cx="402.78" cy="210.59" r="3.96"/><circle class="cls-1" cx="709.29" cy="294.12" r="3.96" transform="translate(-340.96 -58.72) rotate(-2.49)"/><circle class="cls-1" cx="752.92" cy="343.66" r="3.96" transform="translate(64.22 999.1) rotate(-88.76)"/><circle class="cls-1" cx="724.26" cy="329.83" r="3.96" transform="translate(-334.8 -76.42) rotate(-1.06)"/><circle class="cls-1" cx="498.11" cy="316.15" r="3.96"/><circle class="cls-1" cx="684.23" cy="109.66" r="3.96" transform="translate(-333.2 -57.82) rotate(-2.67)"/><circle class="cls-1" cx="27.22" cy="365.11" r="3.96"/><circle class="cls-1" cx="558.52" cy="509.98" r="3.96" transform="matrix(0.01, -1, 1, 0.01, -285.53, 973.81)"/><circle class="cls-1" cx="43.49" cy="448.05" r="3.96"/><circle class="cls-1" cx="536.63" cy="561.24" r="3.96" transform="translate(-381.4 977.16) rotate(-86.93)"/><circle class="cls-1" cx="534.61" cy="565.28" r="3.96" transform="translate(-334.96 -84.01) rotate(-0.62)"/><circle class="cls-1" cx="189.51" cy="482.61" r="3.96"/><circle class="cls-1" cx="457.71" cy="600.56" r="3.96" transform="matrix(1, -0.01, 0.01, 1, -334.02, -85.88)"/></g><g id="SMC_Places"><path class="cls-2" d="M369.22,467.43l-6.76,5.18-3-4.18-.14-.28-5-.72v-7.35l19.87.58v2.88l-4.9,3.89M414,409.25l-21.17,21.89,6.77,6.48,21.17-21.89-2.16-2,.86-.72-.86-.86-.87.72L415.88,411l.72-.72-.86-.87-.87.72-.86-.86m39.17,13.1-17.86-.14v-19.3l-7.2,7.35-50.26,52.13-2,1.72-1.44,1.16v4.32l-5.33,1.58.29.86-.29.29v.43l-.14.29-2.16.29-2.6,1-.43-.29v-.29l-2.16,1.73-.14-.14-6.63,5h.29l-.72.86v19.3l40,.72v20l33.85,1,1.44,4.32h4.89l.15-34.27,82.65,1,.15-30.24L495.37,463l-.86-10.08-.44-4h-.14l-.72-9.07h-.43l-1-13-6-5.76,1-.29-14.83-14h-7.06l-3.74.87-5.62,5.61-.14,9.07h-2.16m336.1,4.32v.15h10.08l.29-33,1.58.87,3-5.76,3.89,4.46-2,3.89,17.42,9.21L828,398l45.65,23.9,4.61-8.93-.44-.14v-.14l9.65-18.58,1.44-1.58.43-.58.29-1.15v-2.16l-1,.86-1,1.3-1.3,1-.72.14-1.44-.58-1.73.44-1.15-.15.29-1-.87-3.88-.28-.15-1.59,3-.14-.15-4.61,8.79-8.21-4.18,4-7.63-2.45-1.3-.57.15-.72-.29-.43-1.3v-1.15l-1,1.15-3.17-1.58.43-.72-.29-.87-.86-.57,3.31-6.48h.43v-.15l5.19.15-5-6.05h-5.19l1-.86,2.74-2.31.57-1.73,1-1,1.15-.72,1.59-.87,1.44-.43.43.29,9.22-8.35-2.45-2.31L873,346.75l-16.13-11.66-5.33-3.6-13.25-9.79v.14l-3.89-2.45.29-2.59,1.15-23.61.29-1,1-1.15-.14-.15,1-1.58V289l-5.76-4.32-15.26-10.94-6.77-5.33-.14.29-4.9-3.46-.57-.29-.29.15v-1.88l1.15-2.3.43-1.87v-2.59l-.29-1.16-1.72-5-11,3.32-17,4.89L772,245.38l-1-.15h-1.15l-1.3-.28h-1.29l-1.59-.29h-.72l4.32,15.69-5.18,1.44-1.58-5.47-2,.58v-.58l.29-.57.72-1.16.29-.28-.87-2.6-14.25,3.17.28-4.61-8.06-10.51L726.06,223.2l-.28-.72-.29-.86v-.72l.29-7.06-.72-2.73-.15-.87.15-2.45-.29-2.44,1.73-4.76.14-5.9-.29-.43-.72-.29-8.21-3,2.74-4.61-.43-.29,3.31-5.76,31.68.43L756,157l-.44.29-.86-.15-.58.29-.43-.57-.86-.44-1.44-1.29-.43-.87-.29-1.44-1.87-1.15-6.05-.57-1.59-.87-.43,1H729.38l-14.55-5.47.15-.43.86.28,3.74-10.08-14.11-5.18-3.6,9.36-5.61-2.16,9.5-25.06-6.19-10.22-.15-.72v-.86l.44-1.88-3.6-7.92-3.32,1.44V91l-15-.15-.72,6,.14,1.15.14.29-13.82.15-11.23.43.72,19.58-.15,1,2.16-.14v.28l11.24-.14v-.29l3.74-.14-1.73,4.17-16.41,42.48-.15,3L643,167.33v-7.49L633,159.7l.14,5.61-9.65-5.61-5-.15h-5.61l-20.45-.14.29.86v.58l1.87,2,.14.29,1.3-.43.86,2,1,2.59-2.16.43-6-1.3-8.21,6.77-16.41-1,1.87-11.52.14-.72,1.3-2.59,1.15-1.58,2.88-6.77.58-2.88.86-2.3,2.16-4.61.58-6.19-.72-3.89,2.45-8.5-.58-.86L575,129.17l.58,3.89-.43,6L573,143.42l-4.61,12.82-.72.43-.72.87-.72,1.44L560.6,167l-2.3-2.74-1.15-.57-.72-.15-1,.15-2.74,1.15-7.2-3,.87-4,.43-7.34,2.45-2.74,4-9.07H552l-1.15,1.15-1.15,1.44-1,1.73-1.44,3.31-2.59,3-9.5,15v14H515.68l-.44,20L495.8,222.34v8.06l-18-5.18-1.15.29-1-1.88-3.31,1.88-2.88,1L467,223.78l-1,2.45-6.62-2.88-4.32,9.79-1.44.29L452,234l-.44,1.73-.43-1.15-2.88,6.48H448l-7.63,18-8.21,18.86-8.92-3.74L414,294.91l-7.35,17.28-.28-.14-9.8,23.9-1.29,1.88-1.44,1.58-1.44,1.3L390.54,342l-.58.72-1.15,1.59-2.31,3v.29l1.16,1-.29,1-.15-.14-.72,3.17v.43l-.57,1.58-.87,1.59-1.72,2-1.16,1.3-.57,1-.29.86h1.15l-3,4.47-4.32,5.76L375,397.15,365.05,399l-3.89.43-3.6.14-13.25-.14-5.76,2.3-3.6.72-.57,47.38.14,10.08v16.41l14.54.15v3.74h3.32l-1.44,1.3-.87.86-.72,1.15-.57,1.16-.29,1.15-1.15,6.05-.29,2.73.14,2.59.58,2.31.86,2.16,1.87,4.17,2.31,6.2.57,1.58.29,1.58.15,1.88-.15,9.93-.43,1.59-.43,4.89-.43.29.28,2.31.44.43,1.87.14v3.89l.29,1.58.43,2.31.29.57.43.87.43.86.29,1.15.57.15.58.86-.14.43,1.15,1.73.57-.43,1.3,1.87.72-.57,5.9,8.06,6.48.14-.14,41.19,20.16-.15L394,623.38l23.19,2.45.14-.58.43-.43,6.48-4.9-.28-.28-4.47-17.72,11.81.15,1.15,1.15,1.3,1,1.87,1.15,2,1.15,1.87.72,1.58.43,2,.29,1.73.15,6.19,2.73,3.31,4.9-.14,27.65-.15.43-.43.57-1,.58-.43.43-4.32,6.91-.14.72.43,1.3.57.72,2.74,2.74.29.86.14,1-.29,1-.72,1.15-.86.57-1.44.72-.43.29-.29.58-.14.86.14,1.3.43.72.87.57L447,670.61l14.25,11.09-1,1.3,12.82.14-3.46-1.58,4.18-4.47.14-13.68,40.33.29.86-60.05,35.14.29-.15-4.75,2.88,1.29,2.16.44,5.19-.15,2.16-1.44.43.15,2.16,1.87-.43,1.15,1.29.72.29-1.58,6.91-4.32-.57-.87-2.16,1.44v-4.46l.86-2.45.14-2.45,3,.87,2-.72,1.16-1.44.43-3.75h-.87l.29-10.8,16.13-.29,5.19-9.5,9.5.14-.43,21.17,23,.43.14-8.06,15.55.43.15-12.81,28.37,1,1.29-40.46.43-20.45,36,1.15,39.45.87L752,486.58l1-60.05,36.29.14" transform="translate(-328.83 -89.86)"/></g></svg>